<svg
   width="100%"
   height="100%"
   viewBox="0 0 350 350"
   xmlns="http://www.w3.org/2000/svg"
>
  <g
     transform="translate(-189.14908,-284.64169)">
    <circle
       style="opacity:1;fill:#ffffff;fill-opacity:1;stroke:none;stroke-width:11.15537834;stroke-linecap:round;stroke-linejoin:round;stroke-miterlimit:4;stroke-dasharray:none;stroke-dashoffset:0;stroke-opacity:1"
       cx="364.14908"
       cy="459.64169"
       r="175" />
    <path
       style="fill:#717171;fill-opacity:1"
       d="m 270.19428,562.33299 c -14.8342,-3.72588 -31.54233,-17.33748 -37.91005,-30.88419 -9.89947,-21.06027 -6.10534,-46.47575 9.45876,-63.3608 15.29974,-16.59826 36.24157,-22.43521 58.86479,-16.40692 7.8876,2.10168 9.097,2.14096 10.11132,0.32851 7.91884,-14.15021 13.95003,-19.00947 18.70051,-15.06697 3.23308,2.68321 2.31206,7.84703 -2.83461,15.89259 -5.62968,8.80055 -5.83605,10.2962 -1.90847,13.8314 9.31398,8.38366 16.39159,25.47186 16.39159,39.57605 0,22.67102 -12.80818,42.40138 -33.94683,52.29338 -7.14367,3.34287 -11.18396,4.27255 -20.24823,4.6591 -6.22809,0.26549 -13.73355,-0.12238 -16.67878,-0.86215 z m 33.16869,-16.60179 c 24.68867,-11.84085 32.1025,-41.84744 16.07389,-65.0574 -1.96467,-2.84487 -4.32502,-5.17254 -5.24521,-5.17254 -0.9202,0 -6.41618,7.65724 -12.21329,17.01615 -12.61917,20.37226 -14.77059,22.64674 -19.41834,20.52917 -6.71906,-3.06148 -5.94569,-6.09461 6.81135,-26.71371 7.11148,-11.49436 11.47921,-19.87592 10.74178,-20.61337 -0.68351,-0.68349 -4.83309,-1.90648 -9.22128,-2.71764 -9.71985,-1.79679 -18.94909,-0.12293 -28.75824,5.21591 -29.73101,16.1817 -29.62762,60.51218 0.17898,76.73493 13.56033,7.38048 26.76281,7.63086 41.05036,0.7785 z m 130.94098,16.59021 c -16.46847,-2.75869 -34.53897,-16.6829 -41.51265,-31.98756 -7.11825,-15.6219 -7.00233,-34.13988 0.30873,-49.31521 4.77832,-9.91815 16.90946,-21.92011 27.28041,-26.98969 7.69501,-3.76153 9.39179,-4.04557 24.16754,-4.04557 15.12487,0 16.32852,0.21518 24.9516,4.46036 22.24568,10.95145 35.49865,35.96316 31.66601,59.76171 -3.84999,23.90625 -22.99295,43.82167 -46.21003,48.07458 -9.10459,1.6679 -10.92009,1.67154 -20.65161,0.0408 z m 26.32783,-15.30632 c 5.38152,-2.01351 10.2192,-5.24978 15.0124,-10.04295 21.39079,-21.39088 15.52016,-57.4262 -11.5186,-70.70399 -6.77186,-3.32533 -9.53374,-3.86857 -19.60661,-3.85577 -10.8333,0.0143 -12.40588,0.38898 -20.69017,4.9364 -23.73362,13.02797 -30.49505,41.74261 -15.09893,64.12264 11.131,16.18027 32.83102,22.67897 51.90192,15.54367 z M 356.55673,528.37253 c -5.05527,-2.03392 -5.83319,-7.76339 -5.83319,-42.96129 0,-40.84162 -1.14676,-37.95592 19.24555,-48.43066 7.55143,-3.87894 14.10626,-7.66166 14.56629,-8.40595 0.96462,-1.56076 -25.69562,-27.62198 -27.2648,-26.65214 -0.57225,0.35366 -4.21124,5.58602 -8.08664,11.62743 -3.87539,6.04131 -8.17709,11.58959 -9.55933,12.32936 -1.38223,0.73966 -12.96785,1.34492 -25.74579,1.34492 -25.88646,0 -29.36382,-0.964 -29.36382,-8.14045 0,-7.39958 2.96386,-8.41169 24.63366,-8.41169 l 19.58875,0 13.05343,-20.0155 c 13.47743,-20.66561 18.37517,-25.48762 25.89817,-25.49767 2.12393,-0.003 5.53781,0.87791 7.58639,1.9572 2.04859,1.07929 14.98485,13.33823 28.74728,27.24207 26.69123,26.96553 28.43734,29.63815 25.39202,38.86552 -2.1266,6.44364 -5.13623,8.82075 -25.58639,20.20862 -9.86232,5.49188 -20.25914,11.47151 -23.10403,13.28805 l -5.17254,3.3027 0,25.39253 c 0,25.30534 -0.0124,25.40697 -3.57097,29.63626 -2.84166,3.37719 -4.60236,4.22168 -8.62091,4.13495 -2.77746,-0.0596 -5.83887,-0.42627 -6.80313,-0.81426 z M 324.84821,372.05791 c -7.37493,-4.49654 -10.22647,-10.38459 -9.6168,-19.8573 0.47722,-7.41481 1.00713,-8.57705 6.05916,-13.28953 13.0382,-12.1619 32.43429,-5.6476 35.77264,12.01447 1.22024,6.45583 -1.63313,13.39357 -7.79994,18.96491 -4.78663,4.32444 -6.31882,4.91807 -12.68199,4.91353 -4.78678,-0.003 -8.75986,-0.9333 -11.73307,-2.74608 z"
    />
  </g>
</svg>
