<svg xmlns="http://www.w3.org/2000/svg" width="30" height="18" viewBox="0 0 30 18"><defs><style>.a{fill:#3d3d3d;}</style></defs><path class="a" d="M173.764,26.506a6.182,6.182,0,0,0-2.569.561l-1.389-2.409,0,0-1.392-2.415h2.554a.575.575,0,0,1,0,1.149.614.614,0,0,0,0,1.229,1.8,1.8,0,0,0,.124-3.595.617.617,0,0,0-.124-.013H167.4a.614.614,0,0,0-.613.614c0,.011,0,.02,0,.031a.613.613,0,0,0,.079.36l1.338,2.321h-7.116l-1.214-2.107h.717a.614.614,0,0,0,0-1.229h-3.56a.614.614,0,0,0,0,1.229h1.426l1.568,2.721-1.22,2.117a6.181,6.181,0,0,0-2.569-.561,6.247,6.247,0,1,0,6.206,6.861h2.792a.629.629,0,0,0,.14-.018l.018,0,.025-.01a.615.615,0,0,0,.1-.042c.007,0,.015,0,.022-.009l0,0,.014-.01a.589.589,0,0,0,.052-.038c.015-.011.029-.023.043-.035l.019-.018c.007-.007.012-.015.018-.022l0,0a.423.423,0,0,0,.068-.1l0-.007c0-.006.008-.01.011-.016l3.52-6.805.838,1.453a6.224,6.224,0,1,0,3.631-1.178ZM156.237,37.771a5.018,5.018,0,1,1,1.955-9.638l-2.486,4.313a.614.614,0,0,0,.531.922h4.968A5.017,5.017,0,0,1,156.237,37.771Zm1.062-5.633,1.951-3.385a5.014,5.014,0,0,1,1.955,3.385Zm5.143,0a6.244,6.244,0,0,0-2.575-4.455l.867-1.5,3.435,5.959Zm2.759-.665L161.8,25.565h6.462Zm8.562,6.3a5.013,5.013,0,0,1-3.013-9.017l2.482,4.307a.614.614,0,1,0,1.062-.614l-2.486-4.313a5.016,5.016,0,1,1,1.954,9.638Z" transform="translate(-150 -21)"/></svg>