<svg xmlns="http://www.w3.org/2000/svg" width="30" height="16.981" viewBox="0 0 30 16.981"><defs><style>.a{fill:#3d3d3d;fill-rule:evenodd;}</style></defs><path class="a" d="M26.7,0H1.415A1.451,1.451,0,0,0,0,1.415V12.736a1.451,1.451,0,0,0,1.415,1.415H3.208a3.6,3.6,0,0,1,3.679-3.585,3.583,3.583,0,0,1,3.585,3.585h8.774a3.632,3.632,0,0,1,7.264,0h2.075A1.451,1.451,0,0,0,30,12.736V7.358a10.012,10.012,0,0,0-.472-2.17L28.113,1.415C27.925.66,27.547,0,26.7,0ZM25.566,5.755l.943,1.6H22.642V1.415h3.679c.377,0,.566.377.66.755L28.491,6.6c.094.377-.283.66-.66.755l-1.321-2.17C26.226,4.528,25.189,5.094,25.566,5.755Zm-2.642,5.66a2.783,2.783,0,1,0,2.736,2.736A2.76,2.76,0,0,0,22.925,11.415Zm-16.038,0a2.783,2.783,0,1,0,2.736,2.736A2.738,2.738,0,0,0,6.887,11.415Zm14.623-10H15.472V7.358h6.038Zm-7.17,0H8.3V7.358H14.34Zm-7.17,0H1.981a.673.673,0,0,0-.66.755V6.7a.645.645,0,0,0,.66.66H7.17Z"/></svg>