<svg xmlns="http://www.w3.org/2000/svg" width="30" height="21.87" viewBox="0 0 30 21.87"><defs><style>.a{fill:#3d3d3d;fill-rule:evenodd;}</style></defs><g transform="translate(0.122)"><path class="a" d="M4.827,7.721c.609-1.331,1.179-2.7,1.94-4.222.418-.723.875-1.369,1.712-1.445H21.3c.837.076,1.293.723,1.712,1.445.761,1.521,1.331,2.891,1.94,4.222Zm6.01,5.477H18.9a.894.894,0,0,1,0,1.788H10.836a.894.894,0,0,1,0-1.788ZM8.478,0C7.109,0,6.272.494,5.131,2.092l-1.9,4.3H.339c-.456,0-1.293,2.358,1.75,2.434L1.061,11.3c.038,3.157.038,6.276.038,9.395A1.185,1.185,0,0,0,2.278,21.87H6.234a1.153,1.153,0,0,0,1.141-1.179V18.1H22.361v2.586A1.185,1.185,0,0,0,23.54,21.87H27.5a1.153,1.153,0,0,0,1.141-1.179c0-3.119.038-6.238.038-9.395L27.648,8.824c3.081-.076,2.206-2.434,1.788-2.434H26.545l-1.9-4.3C23.5.494,22.665,0,21.3,0Zm15.9,11.525a1.907,1.907,0,0,0-1.9,1.9,1.932,1.932,0,0,0,1.9,1.9,1.907,1.907,0,0,0,1.9-1.9A1.883,1.883,0,0,0,24.377,11.525Zm-18.979,0a1.907,1.907,0,0,1,1.9,1.9,1.932,1.932,0,0,1-1.9,1.9,1.907,1.907,0,0,1-1.9-1.9A1.883,1.883,0,0,1,5.4,11.525Z"/></g></svg>