<svg xmlns="http://www.w3.org/2000/svg" width="29.511" height="18.486" viewBox="0 0 29.511 18.486"><defs><style>.a{fill:#3d3d3d;}</style></defs><path class="a" d="M.933,23.545a.705.705,0,0,1,.62-.37H4.718a.705.705,0,1,1,0,1.411H2.855l1.828,2.8,6.165-4.122-1.224-2.46a.705.705,0,0,1,.631-1.019h2.679a.705.705,0,1,1,0,1.411H11.4l2.811,5.652a5.905,5.905,0,1,1-1.266.623l-1.1-2.214L6.522,30.21,7.572,31.82a.705.705,0,0,1-1.182.771L.962,24.267A.708.708,0,0,1,.933,23.545Zm10.643,8.871A4.583,4.583,0,1,0,14.8,28.038L16.771,32a.705.705,0,1,1-1.263.628l-1.974-3.968A4.579,4.579,0,0,0,11.576,32.416Z" transform="translate(7.489 -19.788)"/><path class="a" d="M65.682,46.726H61.94l6.744,3.8L66.02,47.632H68.8l-5.43-4.822a5.816,5.816,0,0,1,2.564-.593A5.87,5.87,0,1,1,61.5,44.255Z" transform="translate(-60.079 -35.494)"/></svg>