<svg
   width="100%"
   height="100%"
   viewBox="0 0 350 350"
>
  <g
     transform="translate(-189.14908,-284.64169)">
    <circle
       style="opacity:1;fill:#ffffff;fill-opacity:1;stroke:none;stroke-width:11.15537834;stroke-linecap:round;stroke-linejoin:round;stroke-miterlimit:4;stroke-dasharray:none;stroke-dashoffset:0;stroke-opacity:1"
       cx="364.14908"
       cy="459.64169"
       r="175" />
    <path
       style="fill:#717171;fill-opacity:1"
       d="m 250.01316,567.87979 c -4.58118,-0.95004 -6.3394,-4.01729 -8.00307,-13.96158 -0.45785,-2.73666 -0.53246,-19.77656 -0.21865,-49.93842 l 0.47634,-45.78429 -3.69954,-1.07549 c -2.03475,-0.59151 -5.28652,-1.44179 -7.22618,-1.88953 l -3.52665,-0.81404 0,-3.82259 c 0,-2.94298 0.53254,-4.93379 2.31431,-8.65174 4.01383,-8.37543 8.66093,-11.76499 16.62414,-12.1255 5.86157,-0.26539 6.65834,-0.63854 8.65325,-4.05261 2.18758,-3.74383 9.84446,-24.53436 12.9652,-35.20414 1.37104,-4.68749 3.24459,-10.36362 4.16347,-12.61361 4.82592,-11.81689 15.99372,-20.90559 30.62038,-24.91984 13.72765,-3.7675 36.82499,-6.8465 54.56889,-7.27431 18.59509,-0.44833 26.6216,0.29243 46.2592,4.26922 27.19877,5.508 32.94413,7.36067 38.69603,12.47803 5.02274,4.46865 7.13784,8.55342 13.18859,25.47028 12.76126,35.67832 13.44429,37.35867 16.25119,39.9804 1.39491,1.3029 2.57533,1.62884 6.44908,1.78074 8.24251,0.32323 13.53446,4.15616 17.49985,12.67507 1.24798,2.68109 1.73441,4.87187 1.73922,7.83309 l 0.007,4.11099 -7.32953,1.94237 c -4.03124,1.0683 -7.55927,2.1481 -7.84007,2.39954 -0.2808,0.25144 -0.0374,3.86134 0.54115,8.02201 0.87387,6.28571 1.01784,14.5809 0.85145,49.05754 l -0.2004,41.49269 -1.70465,4.08177 c -1.1963,2.8645 -2.26919,4.35234 -3.59762,4.98903 -2.65253,1.27133 -22.51564,2.17585 -32.88054,1.4973 -13.20695,-0.86462 -14.63183,-2.53708 -15.39341,-18.06808 -0.25744,-5.24999 -0.50411,-9.62367 -0.54814,-9.71928 -0.044,-0.0956 -29.76469,-0.0956 -66.04586,0 l -65.96577,0.17384 -2.22541,10.87607 c -2.5734,12.57661 -3.72201,15.39113 -6.63821,16.26582 -2.67886,0.8035 -35.34734,1.24042 -38.82485,0.51925 z m 50.84382,-68.96867 c 3.45319,-0.88219 8.37001,-6.22548 7.65631,-8.32039 -0.28262,-0.82958 -0.43842,-2.84676 -0.34623,-4.48259 0.19693,-3.49407 -1.01296,-9.87582 -2.37563,-12.53066 -1.96688,-3.83202 -2.39688,-3.90718 -24.45616,-4.27491 -22.75529,-0.37933 -22.11122,-0.49275 -25.22679,4.44263 -1.56951,2.48626 -1.70221,3.33123 -1.70221,10.8387 l 0,8.14222 2.72209,2.33002 c 1.49716,1.28152 4.02841,2.72333 5.62499,3.20405 6.06096,1.82489 31.788,2.26439 38.10363,0.65093 z m 153.32161,0.0152 c 11.05901,-0.87809 13.32438,-1.76495 15.56603,-6.09391 1.4445,-2.78954 1.56088,-3.72134 1.28166,-10.26046 -0.32923,-7.71008 -1.35185,-10.83091 -4.07781,-12.44454 -1.21224,-0.71759 -6.05233,-0.8224 -23.91101,-0.51778 l -22.3911,0.38192 -1.28505,1.58864 c -2.00164,2.47457 -2.67472,5.97954 -2.67884,13.94985 -0.005,11.04909 2.25982,14.64284 8.79796,13.9559 1.72152,-0.18087 5.73798,-0.10567 8.92547,0.16712 3.18749,0.27278 6.86931,0.38531 8.18181,0.25004 1.3125,-0.13527 6.52839,-0.57483 11.59088,-0.97678 z m -55.56808,-56.921 c 14.60734,-1.28835 29.13308,-3.28064 41.85506,-5.74068 5.7703,-1.1158 10.59888,-2.13616 10.73019,-2.26745 0.13129,-0.13129 -1.45196,-5.27944 -3.51835,-11.4403 -2.06637,-6.16088 -5.46925,-16.87748 -7.56193,-23.81469 -2.09268,-6.9372 -4.27163,-13.53378 -4.84213,-14.65906 -2.16998,-4.28023 -5.69272,-7.78183 -9.92485,-9.8653 -3.77381,-1.85784 -5.27793,-2.16343 -13.44806,-2.73234 -13.77153,-0.95893 -50.37258,-2.06974 -71.58526,-2.17255 -16.82204,-0.0815 -19.50576,0.0626 -26.10039,1.40214 -18.03342,3.66295 -20.07922,5.13499 -24.73696,17.79935 -5.85703,15.92524 -16.02698,45.18089 -15.78875,45.41912 0.13046,0.13047 2.67189,0.70846 5.64762,1.28444 5.089,0.98503 5.45092,0.97567 6.09224,-0.15776 1.13276,-2.00195 5.69996,-6.23422 8.02517,-7.43663 1.20153,-0.62134 4.71207,-1.38588 7.80121,-1.699 l 5.61663,-0.56929 4.19747,2.46007 c 8.11596,4.75663 21.41805,4.77386 29.72487,0.0385 4.20851,-2.39911 4.25668,-2.40832 9.89599,-1.89433 5.0194,0.4575 8.3516,1.4253 9.3976,2.72943 0.18749,0.23378 1.18465,0.96197 2.21589,1.61818 1.03125,0.65625 1.875,1.64631 1.875,2.20017 0,0.55385 0.26904,1.00701 0.59786,1.00701 0.87211,0 3.49304,6.4193 3.49304,8.55531 l 0,1.82525 9.7159,-0.4637 c 5.34373,-0.25505 14.62496,-0.8967 20.62494,-1.42589 z M 322.92886,425.5422 c -1.125,-0.15493 -4.08885,-1.07016 -6.58633,-2.03383 -5.81294,-2.24301 -10.59256,-6.71134 -13.37091,-12.50016 -1.92741,-4.0158 -2.04743,-4.72912 -1.88042,-11.17577 0.18445,-7.11959 0.6666,-8.82537 3.87361,-13.70435 5.69808,-8.66875 16.47125,-12.94542 26.792,-10.63574 4.80359,1.075 11.2236,5.43571 14.61418,9.92648 2.96593,3.92836 4.84618,9.79177 4.8189,15.02741 -0.0199,3.81518 -1.66936,10.31162 -3.15207,12.41434 -0.68496,0.97137 -1.7056,2.45583 -2.2681,3.29876 -3.83212,5.74272 -15.24112,10.42946 -22.84086,9.38286 z"
    />
  </g>
</svg>
