<svg xmlns="http://www.w3.org/2000/svg" width="30" height="20" viewBox="0 0 30 20"><defs><style>.a{fill:#3d3d3d;}</style></defs><g transform="translate(-90 -145)"><path class="a" d="M95,163a3,3,0,0,1,0-6,2.957,2.957,0,0,1,2.211,1h2.358a5,5,0,1,0,0,4H97.211A2.96,2.96,0,0,1,95,163Z"/><path class="a" d="M115.034,155l.93,2.17A2.995,2.995,0,1,1,112,160a2.931,2.931,0,0,1,.286-1.258l-.925-2.156A4.991,4.991,0,1,0,115.034,155Z"/><path class="a" d="M115.919,159.606,109.659,145H105v2h3.341l.857,2H107l-2,3h-3l-1-1H93l-1,3h7l2.857,5H95v2h11l5.077-7.616,3,7.009Z"/><path class="a" d="M115,147a2,2,0,0,0,0,4Z"/></g></svg>