<svg
   width="100%"
   height="100%"
   viewBox="0 0 350 350"
  >
  <g transform="translate(-189.14908,-284.64169)">
    <circle
       style="opacity:1;fill:#ffffff;fill-opacity:1;stroke:none;stroke-width:11.15537834;stroke-linecap:round;stroke-linejoin:round;stroke-miterlimit:4;stroke-dasharray:none;stroke-dashoffset:0;stroke-opacity:1"
       cx="364.14908"
       cy="459.64169"
       r="175" />
    <path
       style="fill:#717171;fill-opacity:1"
       d="m 291.95595,589.21183 c -1.17762,-0.52925 -3.449,-0.99615 -5.0475,-1.03753 -3.90254,-0.10104 -5.12283,-2.76563 -5.12283,-11.18615 l 0,-6.96941 19.04866,-30.89497 19.04866,-30.89497 2.90523,-21.02255 c 1.59787,-11.56238 5.06181,-30.53388 7.69765,-42.15887 2.63583,-11.62499 4.588,-21.34077 4.33814,-21.59062 -0.24985,-0.24985 -2.5218,0.68623 -5.04878,2.08019 -4.05915,2.23915 -5.67916,4.45863 -13.90333,19.04798 -11.17957,19.8321 -13.17651,22.16371 -19.83783,23.16265 -5.75798,0.86345 -12.08192,-0.45653 -13.23708,-2.76299 -2.01167,-4.01652 -3.36177,-10.7787 -2.80788,-14.06355 1.90831,-11.31711 3.1216,-14.44574 10.92404,-28.16929 12.69781,-22.33392 8.87411,-19.36055 43.64802,-33.94131 l 18.00926,-7.5513 12.51519,0.41446 c 8.75686,0.29 13.4797,0.92896 15.7269,2.12773 1.76642,0.94231 9.0109,8.86675 16.09882,17.60988 l 12.88716,15.89661 15.4827,5.62812 c 26.62276,9.67762 24.26769,8.46528 25.10128,12.92173 1.70669,9.12424 0.45464,20.11038 -2.553,22.40138 -0.94203,0.71755 -4.60854,1.31996 -8.14781,1.3387 -5.32164,0.0282 -9.76473,-1.18789 -25.67951,-7.02831 -23.64322,-8.67658 -23.85151,-8.78403 -28.84246,-14.8748 -2.22826,-2.71931 -4.24745,-4.74815 -4.48708,-4.50854 -0.8078,0.80781 -6.89549,26.86489 -6.58801,28.19863 0.1675,0.72654 9.68455,8.21695 21.14901,16.64537 11.46445,8.42839 21.46233,16.52873 22.21752,18.00075 1.06316,2.07234 1.31189,12.27437 1.10203,45.20243 -0.26086,40.93051 -0.35136,42.60411 -2.41215,44.60731 -2.16221,2.10178 -6.65958,2.70234 -17.94763,2.39661 -4.54032,-0.12296 -5.33403,-0.52052 -7.22228,-3.61747 -1.99421,-3.27076 -2.12523,-5.53289 -2.18562,-37.73726 l -0.0642,-34.25794 -16.46619,-11.77616 c -9.0564,-6.47688 -16.85747,-11.77617 -17.33572,-11.77617 -0.47824,0 -1.86444,7.24821 -3.08044,16.10712 -1.21601,8.8589 -2.61754,16.80781 -3.11453,17.66425 -0.49699,0.85643 -9.74993,15.82721 -20.5621,33.26843 -19.26999,31.08457 -19.7374,31.72467 -23.65016,32.38838 -9.15255,1.55254 -10.51312,1.62963 -12.55612,0.71145 z m 70.48543,-210.33766 c -9.77271,-3.05638 -16.09246,-10.89978 -17.16639,-21.3051 -1.36151,-13.19173 5.30225,-22.50179 14.35434,-25.87721 2.881,-1.0743 7.00696,-1.84568 10.84074,-1.88386 4.38956,-0.0438 8.98607,0.86109 11.94824,1.85696 8.88964,2.9887 14.93136,9.9784 14.95388,21.98133 0.0359,19.17288 -16.38065,31.02936 -34.93081,25.22786 z"
    />
  </g>
</svg>
