<svg xmlns="http://www.w3.org/2000/svg" width="29.621" height="15.221" viewBox="0 0 29.621 15.221"><defs><style>.a{fill:#3d3d3d;}</style></defs><circle class="a" cx="3.21" cy="3.21" r="3.21" transform="translate(21.596 8.801)"/><circle class="a" cx="3.21" cy="3.21" r="3.21" transform="translate(4.729 8.801)"/><path class="a" d="M843.906-185.686h14.782a1.534,1.534,0,0,1,1.024.473l4.294,5.058a1.535,1.535,0,0,0,1.024.473h4.764a.623.623,0,0,1,.621.621v4.764a.6.6,0,0,1-.569.621h-.672a3.573,3.573,0,0,0-3.574-3.573,3.573,3.573,0,0,0-3.573,3.573H852.3a3.573,3.573,0,0,0-3.573-3.573,3.573,3.573,0,0,0-3.573,3.573h-1.253a.623.623,0,0,1-.621-.621v-10.769A.625.625,0,0,1,843.906-185.686Zm12.626,5.384a.623.623,0,0,0,.621.621h5.487c.342,0,.442-.215.223-.476l-3.759-4.49a1.515,1.515,0,0,0-1.02-.476h-.932a.623.623,0,0,0-.621.621Zm-6.394,0a.623.623,0,0,0,.621.621h4.375a.623.623,0,0,0,.621-.621v-4.2a.623.623,0,0,0-.621-.621h-4.375a.623.623,0,0,0-.621.621Zm-6.135,0a.623.623,0,0,0,.621.621h4.116a.623.623,0,0,0,.621-.621v-4.2a.623.623,0,0,0-.621-.621h-4.116a.623.623,0,0,0-.621.621Z" transform="translate(-840.793 185.686)"/><path class="a" d="M930.924-171.419a1.065,1.065,0,0,0,1.065,1.065h0a1.065,1.065,0,0,0,1.065-1.065v-4.29a1.065,1.065,0,0,0-1.065-1.065h0a1.065,1.065,0,0,0-1.065,1.065Z" transform="translate(-930.924 179.57)"/></svg>