<svg xmlns="http://www.w3.org/2000/svg" width="30" height="16.26" viewBox="0 0 30 16.26"><defs><style>.a{fill:#3d3d3d;}</style></defs><g transform="translate(-2.5 -24.2)"><g transform="translate(2.5 24.2)"><path class="a" d="M31.4,40.253l-3.057-.41-1.765-3.088A2.7,2.7,0,0,0,24.244,35.4H20.9a.6.6,0,0,0-.6.6v6.113a.6.6,0,0,1-.6.6H3.1a.6.6,0,0,0-.6.6v1.8a.6.6,0,0,0,.6.6H4.454a2.657,2.657,0,0,0,5.294,0H25.221a2.657,2.657,0,0,0,5.294,0h.819A1.163,1.163,0,0,0,32.5,44.539V41.45A1.28,1.28,0,0,0,31.4,40.253ZM7.069,46.871a1.387,1.387,0,1,1,1.387-1.387A1.4,1.4,0,0,1,7.069,46.871Zm15.158-7.122V37.07h2.017a1.044,1.044,0,0,1,.882.5l1.229,2.174ZM27.8,46.871a1.387,1.387,0,1,1,1.387-1.387A1.4,1.4,0,0,1,27.8,46.871Z" transform="translate(-2.5 -31.871)"/><path class="a" d="M3.1,34.189H18.918a.6.6,0,0,0,.6-.6V24.8a.6.6,0,0,0-.6-.6H3.1a.6.6,0,0,0-.6.6v8.792A.579.579,0,0,0,3.1,34.189Z" transform="translate(-2.5 -24.2)"/></g></g></svg>